<svg width="15pt" height="15pt" version="1.1" viewBox="0 0 700 700" xmlns="http://www.w3.org/2000/svg" xmlns:xlink="http://www.w3.org/1999/xlink">
 <g>
  <path d="m302.48 454.23c-34.895 34.895-91.82 34.895-126.71 0-34.895-34.895-34.895-91.816 0-126.71l79.195-79.195c33.266-33.266 86.453-35.102 121.64-4.8281 4.5742 3.9141 6.7148 9.9688 5.6172 15.891-1.1016 5.918-5.2773 10.801-10.953 12.805-5.6758 2.0078-11.992 0.83203-16.566-3.0781-22.145-19.055-54.859-18.148-75.977 2.9688l-79.195 79.195c-22.145 22.145-22.145 57.055 0 79.195 22.141 22.141 57.051 22.141 79.195 0l75.23-75.238c3.1367-3.2148 7.4336-5.0391 11.926-5.0703 4.4922-0.027343 8.8086 1.7461 11.984 4.9219 3.1758 3.1758 4.9492 7.4922 4.9219 11.984-0.03125 4.4922-1.8555 8.7852-5.0703 11.922zm142.55-142.55c-33.266 33.266-86.453 35.102-121.64 4.8281h0.003906c-3.418-2.8984-5.543-7.0391-5.9023-11.508-0.35547-4.4688 1.0781-8.8945 3.9922-12.301 2.9102-3.4062 7.0625-5.5117 11.531-5.8516s8.8867 1.1172 12.281 4.043c22.145 19.051 54.859 18.148 75.977-2.9688l79.195-79.195c22.145-22.145 22.145-57.051 0-79.195-22.141-22.141-57.051-22.141-79.195 0l-75.234 75.234c-3.1328 3.2266-7.4297 5.0586-11.926 5.0898-4.5 0.03125-8.8203-1.7383-12-4.918-3.1797-3.1797-4.9531-7.5039-4.9219-12s1.8672-8.793 5.0898-11.93l75.234-75.234c34.895-34.895 91.82-34.895 126.71 0 34.895 34.895 34.895 91.82 0 126.71z"/>
 </g>
</svg>